<svg width="24" height="24" viewBox="0 0 24 24" fill="none" xmlns="http://www.w3.org/2000/svg">
<path d="M12 0C5.37321 0 0 5.37321 0 12C0 18.6268 5.37321 24 12 24C18.6268 24 24 18.6268 24 12C24 5.37321 18.6268 0 12 0ZM17.183 8.08125L11.542 15.9027C11.4631 16.0127 11.3592 16.1024 11.2388 16.1642C11.1184 16.2261 10.9849 16.2584 10.8496 16.2584C10.7142 16.2584 10.5808 16.2261 10.4603 16.1642C10.3399 16.1024 10.236 16.0127 10.1571 15.9027L6.81696 11.2741C6.71518 11.1321 6.81696 10.9339 6.99107 10.9339H8.24732C8.52054 10.9339 8.78036 11.0652 8.94107 11.2902L10.8482 13.9366L15.0589 8.09732C15.2196 7.875 15.4768 7.74107 15.7527 7.74107H17.0089C17.183 7.74107 17.2848 7.93929 17.183 8.08125Z" fill="#1D2225"/>
</svg>
