<svg width="49" height="48" viewBox="0 0 49 48" fill="none" xmlns="http://www.w3.org/2000/svg">
<rect x="0.5" width="48" height="48" rx="8" fill="#1D2225"/>
<path d="M35.1157 17.9564C35.2375 17.8348 35.3342 17.6904 35.4001 17.5314C35.4661 17.3725 35.5 17.202 35.5 17.0299C35.5 16.8578 35.4661 16.6874 35.4001 16.5284C35.3342 16.3694 35.2375 16.225 35.1157 16.1034L31.3966 12.3843C31.275 12.2625 31.1306 12.1658 30.9716 12.0999C30.8126 12.0339 30.6422 12 30.4701 12C30.298 12 30.1275 12.0339 29.9686 12.0999C29.8096 12.1658 29.6652 12.2625 29.5436 12.3843L23.643 18.285L18.5308 13.1728C17.5058 12.1478 15.8368 12.1478 14.8117 13.1728L12.3148 15.6698C11.2897 16.6948 11.2897 18.3638 12.3148 19.3889L17.4269 24.501L11.5 30.4279V36H17.0721L23.0122 30.0599L28.1243 35.1721C29.3727 36.4205 31.0549 35.9606 31.8434 35.1721L34.3403 32.6751C35.3654 31.6501 35.3654 29.9811 34.3403 28.956L29.2282 23.8439L35.1157 17.9564ZM14.1809 17.5227L16.6647 15.0258L18.3337 16.6948L16.783 18.2587L18.636 20.1117L20.1998 18.5478L21.7768 20.1248L19.2799 22.6217L14.1809 17.5227ZM28.9391 27.3002L27.3752 28.864L29.2282 30.717L30.7921 29.1532L32.4611 30.8222L29.9641 33.3191L24.852 28.207L27.3489 25.71L28.9391 27.3002ZM15.9813 33.3717H14.1283V31.5187L26.7575 18.8895L28.466 20.5979L28.6105 20.7425L15.9813 33.3717ZM28.6105 17.0234L30.4635 15.1704L32.3165 17.0234L30.4635 18.8763L28.6105 17.0234Z" fill="white"/>
</svg>
