<svg width="24" height="23" viewBox="0 0 24 23" fill="none" xmlns="http://www.w3.org/2000/svg">
<path d="M13.5701 22.3801C13.3401 22.3801 13.1101 22.3401 12.8901 22.2601C12.1401 21.9801 11.6601 21.2801 11.6601 20.4801V14.0301H9.32009C8.56009 14.0301 7.90008 13.6001 7.59008 12.9101C7.28008 12.2201 7.40008 11.4401 7.90008 10.8701L15.4701 2.27006C16.0001 1.67006 16.8201 1.46006 17.5701 1.75006C18.3201 2.03006 18.8001 2.73006 18.8001 3.53006V9.98006H21.1401C21.9001 9.98006 22.5601 10.4101 22.8701 11.1001C23.1801 11.7901 23.0601 12.5701 22.5601 13.1401L14.9901 21.7401C14.6201 22.1601 14.1001 22.3801 13.5701 22.3801ZM16.8801 3.12006C16.7901 3.12006 16.6801 3.15006 16.5901 3.26006L9.02007 11.8701C8.86007 12.0501 8.9201 12.2301 8.9501 12.3001C8.9801 12.3701 9.08009 12.5401 9.32009 12.5401H12.4101C12.8201 12.5401 13.1601 12.8801 13.1601 13.2901V20.4901C13.1601 20.7401 13.3401 20.8401 13.4201 20.8701C13.5001 20.9001 13.7001 20.9501 13.8601 20.7601L21.4301 12.1501C21.5901 11.9701 21.5301 11.7901 21.5001 11.7201C21.4701 11.6501 21.3701 11.4801 21.1301 11.4801H18.0401C17.6301 11.4801 17.2901 11.1401 17.2901 10.7301V3.53006C17.2901 3.28006 17.1101 3.18006 17.0301 3.15006C17.0001 3.13006 16.9401 3.12006 16.8801 3.12006Z" fill="#3A78F2"/>
<path d="M8.50012 4.75H1.50012C1.09012 4.75 0.750122 4.41 0.750122 4C0.750122 3.59 1.09012 3.25 1.50012 3.25H8.50012C8.91012 3.25 9.25012 3.59 9.25012 4C9.25012 4.41 8.91012 4.75 8.50012 4.75Z" fill="#3A78F2"/>
<path d="M7.50012 20.75H1.50012C1.09012 20.75 0.750122 20.41 0.750122 20C0.750122 19.59 1.09012 19.25 1.50012 19.25H7.50012C7.91012 19.25 8.25012 19.59 8.25012 20C8.25012 20.41 7.91012 20.75 7.50012 20.75Z" fill="#3A78F2"/>
<path d="M4.50012 12.75H1.50012C1.09012 12.75 0.750122 12.41 0.750122 12C0.750122 11.59 1.09012 11.25 1.50012 11.25H4.50012C4.91012 11.25 5.25012 11.59 5.25012 12C5.25012 12.41 4.91012 12.75 4.50012 12.75Z" fill="#3A78F2"/>
</svg>
