<svg width="24" height="28" viewBox="0 0 24 28" fill="none" xmlns="http://www.w3.org/2000/svg">
<path d="M12 25.7903C11.3 25.7903 10.59 25.4841 10.06 24.8833L8.35001 22.9675C7.92001 22.4914 7.35999 22.2307 6.75999 22.2307H6C3.93 22.2307 2.25 20.3375 2.25 18.0136V5.64556C2.25 3.3216 3.93 1.42847 6 1.42847H18C20.07 1.42847 21.75 3.3216 21.75 5.64556V18.0136C21.75 20.3375 20.07 22.2307 18 22.2307H17.24C16.64 22.2307 16.07 22.4914 15.65 22.9675L13.94 24.8833C13.41 25.4841 12.7 25.7903 12 25.7903ZM6 3.11757C4.76 3.11757 3.75 4.25117 3.75 5.63421V18.0022C3.75 19.3966 4.76 20.5189 6 20.5189H6.75999C7.75999 20.5189 8.7 20.9609 9.41 21.7545L11.12 23.6704C11.61 24.2145 12.4 24.2145 12.89 23.6704L14.6 21.7545C15.31 20.9609 16.25 20.5189 17.25 20.5189H18C19.24 20.5189 20.25 19.3852 20.25 18.0022V5.63421C20.25 4.23984 19.24 3.11757 18 3.11757H6Z" fill="#3A78F2"/>
<path d="M10.3802 16.4492H7.70023C7.26023 16.4492 6.85023 16.2111 6.59023 15.803C6.34023 15.4175 6.28022 14.9415 6.40022 14.488C6.75022 13.275 7.61022 12.6175 8.37022 12.028C9.17022 11.4158 9.62022 11.0304 9.62022 10.3729C9.62022 9.78337 9.20022 9.30717 8.68022 9.30717C8.16022 9.30717 7.74023 9.78337 7.74023 10.3729C7.74023 10.8377 7.40023 11.2231 6.99023 11.2231C6.58023 11.2231 6.24023 10.8377 6.24023 10.3729C6.24023 8.85378 7.33022 7.60669 8.68022 7.60669C10.0302 7.60669 11.1202 8.84244 11.1202 10.3729C11.1202 11.9713 10.0602 12.7875 9.21024 13.445C8.68024 13.8531 8.18022 14.2386 7.93022 14.7487H10.3702C10.7802 14.7487 11.1202 15.1342 11.1202 15.599C11.1202 16.0638 10.7902 16.4492 10.3802 16.4492Z" fill="#3A78F2"/>
<path d="M16.0397 16.4492C15.6297 16.4492 15.2897 16.0638 15.2897 15.599V14.8167H13.3298C13.3298 14.8167 13.3298 14.8167 13.3198 14.8167C12.8298 14.8167 12.3798 14.522 12.1298 14.0458C11.8798 13.5584 11.8798 12.9575 12.1298 12.4814C12.8098 11.155 13.5998 9.64716 14.3198 8.3321C14.6398 7.75393 15.2498 7.49323 15.8198 7.67462C16.3898 7.86734 16.7898 8.4569 16.7798 9.1371V13.1275H16.9998C17.4098 13.1275 17.7498 13.513 17.7498 13.9778C17.7498 14.4426 17.4098 14.828 16.9998 14.828H16.7897V15.6103C16.7897 16.0751 16.4597 16.4492 16.0397 16.4492ZM15.2897 9.79458C14.6997 10.8829 14.0897 12.0505 13.5397 13.1162H15.2897V9.79458Z" fill="#3A78F2"/>
</svg>
