<svg width="49" height="48" viewBox="0 0 49 48" fill="none" xmlns="http://www.w3.org/2000/svg">
<rect x="0.5" width="48" height="48" rx="8" fill="#1D2225"/>
<g clip-path="url(#clip0_1_4040)">
<path d="M34.2247 28.3436C35.1242 26.1855 35.3312 23.7971 34.8167 21.514C34.3022 19.231 33.092 17.1681 31.3563 15.6156C29.6206 14.063 27.4466 13.0988 25.14 12.8584C22.8334 12.6181 20.5102 13.1137 18.4971 14.2756L17.1219 11.8442C19.2258 10.63 21.6082 9.99415 24.0315 10C26.4547 10.0059 28.8341 10.6534 30.9322 11.8778C37.1567 15.506 39.5411 23.2749 36.6396 29.7532L38.5 30.8366L32.7261 33.9358L32.4973 27.3371L34.2247 28.3436ZM13.7767 19.6564C12.8772 21.8145 12.6702 24.2029 13.1847 26.486C13.6992 28.769 14.9094 30.8319 16.6451 32.3844C18.3808 33.937 20.5548 34.9012 22.8614 35.1416C25.168 35.382 27.4911 34.8863 29.5043 33.7244L30.8795 36.1558C28.7756 37.37 26.3932 38.0059 23.9699 38C21.5466 37.9941 19.1673 37.3466 17.0692 36.1222C10.8447 32.494 8.46028 24.7251 11.3618 18.2468L9.5 17.1648L15.2739 14.0656L15.5027 20.6643L13.7753 19.6578L13.7767 19.6564ZM25.9623 27.9586L22.0377 24L18.1172 27.9586L16.157 25.9793L22.0391 20.0414L25.9609 24L29.8828 20.0414L31.843 22.0207L25.9609 27.9586H25.9623Z" fill="white"/>
</g>
<defs>
<clipPath id="clip0_1_4040">
<rect width="28" height="28" fill="white" transform="translate(10.5 10)"/>
</clipPath>
</defs>
</svg>
