<svg width="49" height="48" viewBox="0 0 49 48" fill="none" xmlns="http://www.w3.org/2000/svg">
<rect x="0.5" width="48" height="48" rx="8" fill="white"/>
<g clip-path="url(#clip0_1_4048)">
<path fill-rule="evenodd" clip-rule="evenodd" d="M13.125 13.0625C13.125 12.7144 12.9867 12.3806 12.7406 12.1344C12.4944 11.8883 12.1606 11.75 11.8125 11.75C11.4644 11.75 11.1306 11.8883 10.8844 12.1344C10.6383 12.3806 10.5 12.7144 10.5 13.0625V34.9375C10.5 35.662 11.088 36.25 11.8125 36.25H37.1875C37.5356 36.25 37.8694 36.1117 38.1156 35.8656C38.3617 35.6194 38.5 35.2856 38.5 34.9375C38.5 34.5894 38.3617 34.2556 38.1156 34.0094C37.8694 33.7633 37.5356 33.625 37.1875 33.625H13.125V13.0625ZM38.115 17.49C38.3468 17.2412 38.4731 16.9121 38.4671 16.5721C38.4611 16.2321 38.3233 15.9076 38.0828 15.6672C37.8424 15.4267 37.5179 15.2889 37.1779 15.2829C36.8379 15.2769 36.5088 15.4032 36.26 15.635L28 23.895L23.6775 19.5725C23.4314 19.3267 23.0978 19.1887 22.75 19.1887C22.4022 19.1887 22.0686 19.3267 21.8225 19.5725L16.135 25.26C15.9032 25.5088 15.7769 25.8379 15.7829 26.1779C15.7889 26.5179 15.9267 26.8424 16.1672 27.0828C16.4076 27.3233 16.7321 27.4611 17.0721 27.4671C17.4121 27.4731 17.7412 27.3468 17.99 27.115L22.75 22.355L27.0725 26.6775C27.3186 26.9233 27.6522 27.0613 28 27.0613C28.3478 27.0613 28.6814 26.9233 28.9275 26.6775L38.115 17.49Z" fill="#303E49"/>
</g>
<defs>
<clipPath id="clip0_1_4048">
<rect width="28" height="28" fill="white" transform="translate(10.5 10)"/>
</clipPath>
</defs>
</svg>
