<svg width="49" height="48" viewBox="0 0 49 48" fill="none" xmlns="http://www.w3.org/2000/svg">
<rect x="0.5" width="48" height="48" rx="8" fill="#1D2225"/>
<g clip-path="url(#clip0_1_4056)">
<path fill-rule="evenodd" clip-rule="evenodd" d="M12.374 19.2046C12.374 15.624 15.2127 12.7611 18.6718 12.7611C20.7117 12.7611 22.5464 13.767 23.6947 15.3241C23.8832 15.5797 24.1819 15.7305 24.4995 15.7305C24.8171 15.7305 25.1158 15.5797 25.3043 15.3241C26.4525 13.767 28.2873 12.7611 30.3272 12.7611C33.7863 12.7611 36.6249 15.624 36.6249 19.2046C36.6249 21.16 36.227 22.932 35.5652 24.5257C35.3719 24.3855 35.1717 24.2546 34.965 24.1336C33.8486 23.4229 32.5234 23.0111 31.1025 23.0111C27.1246 23.0111 23.8977 26.238 23.8977 30.2159C23.8977 31.0692 24.0527 31.8911 24.3317 32.652C24.5123 33.2591 24.7681 33.8331 25.0869 34.3632C25.0551 34.3745 25.0237 34.3853 24.9929 34.3958L24.9762 34.4016C24.8949 34.4307 24.7222 34.4629 24.4995 34.4629C24.2768 34.4629 24.1041 34.4307 24.0228 34.4016L24.0228 34.4015L24.013 34.3981C22.2549 33.7893 19.3129 32.1694 16.8231 29.5815C14.3458 27.0065 12.374 23.5374 12.374 19.2046ZM26.6627 35.8844C26.3052 36.0418 25.9622 36.1789 25.6412 36.2878C25.2784 36.416 24.8644 36.4629 24.4995 36.4629C24.1333 36.4629 23.7177 36.4157 23.354 36.2865C21.3055 35.576 18.0944 33.7876 15.3818 30.9681C12.6549 28.1337 10.374 24.1926 10.374 19.2046C10.374 14.5561 14.0718 10.7611 18.6718 10.7611C20.9415 10.7611 23.0056 11.6985 24.4995 13.1994C25.9934 11.6985 28.0574 10.7611 30.3272 10.7611C34.9271 10.7611 38.6249 14.5561 38.6249 19.2046C38.6249 21.7941 38.0126 24.1053 37.0369 26.1302C37.838 27.2914 38.3072 28.699 38.3072 30.2159C38.3072 31.5623 37.9338 32.8416 37.2557 33.9301C36.0097 36.0101 33.7292 37.4206 31.1025 37.4206C29.425 37.4206 27.881 36.8451 26.6627 35.8844ZM26.2315 32.0228C26.3466 32.3252 26.4892 32.6146 26.6558 32.8873L26.6638 32.9006C27.5497 34.4023 29.2053 35.4206 31.1025 35.4206C32.9963 35.4206 34.6428 34.4049 35.5438 32.896L35.5544 32.8787C36.0363 32.1076 36.3072 31.1927 36.3072 30.2159C36.3072 28.3789 35.3542 26.7634 33.916 25.837C33.1462 25.395 32.2621 25.1447 31.3247 25.1447C28.4123 25.1447 26.0245 27.5462 26.0245 30.5362C26.0245 31.0519 26.0969 31.5505 26.2315 32.0228ZM34.5109 27.6165C34.8882 28.0198 34.867 28.6527 34.4636 29.0299L31.1035 32.1724C30.7076 32.5426 30.0888 32.53 29.7083 32.144L28.1595 30.5728C27.7718 30.1794 27.7763 29.5463 28.1696 29.1586C28.563 28.7709 29.1961 28.7754 29.5838 29.1688L30.4488 30.0463L33.0975 27.5692C33.5009 27.1919 34.1337 27.2131 34.5109 27.6165Z" fill="white"/>
</g>
<defs>
<clipPath id="clip0_1_4056">
<rect width="28" height="28" fill="white" transform="translate(10.5 10)"/>
</clipPath>
</defs>
</svg>
