<svg width="24" height="24" viewBox="0 0 24 24" fill="none" xmlns="http://www.w3.org/2000/svg">
<path d="M17.9999 7.91002C17.9699 7.91002 17.9499 7.91002 17.9199 7.91002H17.8699C15.9799 7.85002 14.5699 6.39001 14.5699 4.59001C14.5699 2.75001 16.0699 1.26001 17.8999 1.26001C19.7299 1.26001 21.2299 2.76001 21.2299 4.59001C21.2199 6.40001 19.8099 7.86001 18.0099 7.92001C18.0099 7.91001 18.0099 7.91002 17.9999 7.91002ZM17.8999 2.75002C16.8899 2.75002 16.0699 3.57002 16.0699 4.58002C16.0699 5.57002 16.8399 6.37002 17.8299 6.41002C17.8399 6.40002 17.9199 6.40002 18.0099 6.41002C18.9799 6.36002 19.7299 5.56002 19.7399 4.58002C19.7399 3.57002 18.9199 2.75002 17.8999 2.75002Z" fill="#3A78F2"/>
<path d="M18.0101 15.2799C17.6201 15.2799 17.2301 15.2499 16.8401 15.1799C16.4301 15.1099 16.1601 14.7199 16.2301 14.3099C16.3001 13.8999 16.6901 13.6299 17.1001 13.6999C18.3301 13.9099 19.6301 13.6799 20.5001 13.0999C20.9701 12.7899 21.2201 12.3999 21.2201 12.0099C21.2201 11.6199 20.9601 11.2399 20.5001 10.9299C19.6301 10.3499 18.3101 10.1199 17.0701 10.3399C16.6601 10.4199 16.2701 10.1399 16.2001 9.7299C16.1301 9.3199 16.4001 8.92991 16.8101 8.85991C18.4401 8.56991 20.1301 8.8799 21.3301 9.6799C22.2101 10.2699 22.7201 11.1099 22.7201 12.0099C22.7201 12.8999 22.2201 13.7499 21.3301 14.3499C20.4201 14.9499 19.2401 15.2799 18.0101 15.2799Z" fill="#3A78F2"/>
<path d="M5.9701 7.91C5.9601 7.91 5.9501 7.91 5.9501 7.91C4.1501 7.85 2.7401 6.39 2.7301 4.59C2.7301 2.75 4.2301 1.25 6.0601 1.25C7.8901 1.25 9.3901 2.75 9.3901 4.58C9.3901 6.39 7.9801 7.85 6.1801 7.91L6.0701 7.92927L6.0401 7.91C6.0201 7.91 5.9901 7.91 5.9701 7.91ZM6.09836 6.42C6.15836 6.42 6.1801 6.41 6.2401 6.42C7.13011 6.38 7.9101 5.58 7.9101 4.59C7.9101 3.58 7.09011 2.75999 6.08011 2.75999C5.07011 2.75999 4.2501 3.58 4.2501 4.59C4.2501 5.57 5.0101 6.36 5.9801 6.42C5.9901 6.41 6.05836 6.42 6.09836 6.42Z" fill="#3A78F2"/>
<path d="M5.96012 15.2799C4.73012 15.2799 3.55012 14.9499 2.64012 14.3499C1.76012 13.7599 1.25012 12.9099 1.25012 12.0099C1.25012 11.1199 1.76012 10.2699 2.64012 9.6799C3.84012 8.8799 5.53012 8.56991 7.16012 8.85991C7.57012 8.92991 7.84012 9.3199 7.77012 9.7299C7.70012 10.1399 7.31012 10.4199 6.90012 10.3399C5.66012 10.1199 4.35012 10.3499 3.47012 10.9299C3.00012 11.2399 2.75012 11.6199 2.75012 12.0099C2.75012 12.3999 3.01012 12.7899 3.47012 13.0999C4.34012 13.6799 5.64012 13.9099 6.87012 13.6999C7.28012 13.6299 7.67012 13.9099 7.74012 14.3099C7.81012 14.7199 7.54012 15.1099 7.13012 15.1799C6.74012 15.2499 6.35012 15.2799 5.96012 15.2799Z" fill="#3A78F2"/>
<path d="M11.9999 15.38C11.9699 15.38 11.9499 15.38 11.9199 15.38H11.8699C9.97995 15.32 8.56995 13.86 8.56995 12.06C8.56995 10.22 10.0699 8.72998 11.8999 8.72998C13.7299 8.72998 15.2299 10.23 15.2299 12.06C15.2199 13.87 13.8099 15.33 12.0099 15.39C12.0099 15.38 12.0099 15.38 11.9999 15.38ZM11.8999 10.22C10.8899 10.22 10.0699 11.04 10.0699 12.05C10.0699 13.04 10.8399 13.84 11.8299 13.88C11.8399 13.87 11.9199 13.87 12.0099 13.88C12.9799 13.83 13.7299 13.03 13.7399 12.05C13.7399 11.05 12.9199 10.22 11.8999 10.22Z" fill="#3A78F2"/>
<path d="M11.9999 22.76C10.7999 22.76 9.59991 22.45 8.66991 21.82C7.78991 21.23 7.27991 20.39 7.27991 19.49C7.27991 18.6 7.77991 17.74 8.66991 17.15C10.5399 15.91 13.4699 15.91 15.3299 17.15C16.2099 17.74 16.7199 18.58 16.7199 19.48C16.7199 20.37 16.2199 21.23 15.3299 21.82C14.3999 22.44 13.1999 22.76 11.9999 22.76ZM9.49991 18.41C9.02991 18.72 8.77991 19.11 8.77991 19.5C8.77991 19.89 9.03991 20.27 9.49991 20.58C10.8499 21.49 13.1399 21.49 14.4899 20.58C14.9599 20.27 15.2099 19.88 15.2099 19.49C15.2099 19.1 14.9499 18.72 14.4899 18.41C13.1499 17.5 10.8599 17.51 9.49991 18.41Z" fill="#3A78F2"/>
</svg>
