<svg width="20" height="20" viewBox="0 0 20 20" fill="none" xmlns="http://www.w3.org/2000/svg">
<path d="M13.3333 18.3334V15.1084C13.3646 14.711 13.3109 14.3115 13.1758 13.9365C13.0407 13.5615 12.8274 13.2195 12.55 12.9334C15.1666 12.6417 17.9166 11.65 17.9166 7.10003C17.9164 5.93655 17.4689 4.81769 16.6666 3.97503C17.0465 2.95712 17.0196 1.83199 16.5916 0.833363C16.5916 0.833363 15.6083 0.541696 13.3333 2.0667C11.4233 1.54905 9.40995 1.54905 7.49996 2.0667C5.22496 0.541696 4.24163 0.833363 4.24163 0.833363C3.81361 1.83199 3.78675 2.95712 4.16663 3.97503C3.3584 4.82395 2.91039 5.95291 2.91663 7.12503C2.91663 11.6417 5.66663 12.6334 8.28329 12.9584C8.00912 13.2417 7.79768 13.5795 7.66272 13.95C7.52775 14.3204 7.4723 14.7151 7.49996 15.1084V18.3334M7.49996 15.8334C3.33329 17.0834 3.33329 13.75 1.66663 13.3334L7.49996 15.8334Z" stroke="white" stroke-linecap="round" stroke-linejoin="round"/>
</svg>
