<svg width="118" height="40" viewBox="0 0 118 40" fill="none" xmlns="http://www.w3.org/2000/svg">
<path d="M0.175717 0.640459H4.11829V21.1198H0.175717V0.640459ZM28.0656 18.3765C26.6362 19.8642 24.4148 21.5274 19.9214 21.5274C13.8765 21.5274 9.20732 16.9484 9.20732 10.8221C9.20732 4.37453 14.4035 0.229858 20.097 0.229858C24.0962 0.229858 26.7256 2.12813 28.009 3.29447L25.6149 6.15379C24.7692 5.30879 22.8694 3.7616 20.1536 3.7616C16.3302 3.7616 13.4387 6.90953 13.4387 10.8221C13.4387 14.6127 16.0949 17.9392 20.2995 17.9392C22.6341 17.9392 24.6203 16.8026 25.731 15.7523L28.0656 18.3765ZM46.1526 3.9669H41.0427V21.1198H37.1002V3.9669H31.9903V0.640459H46.1526V3.9669ZM71.5382 11.4053H64.326V21.1198H60.3834V0.640459H64.326V8.07884H71.5382V0.640459H75.4807V21.1198H71.5382V11.4053ZM81.5941 0.640459H85.5367V13.7409C85.5367 16.2194 87.2578 18.0582 89.4793 18.0582C91.6977 18.0582 93.4516 16.2194 93.4516 13.7409V0.640459H97.424V13.9135C97.424 17.9392 94.738 21.5274 89.4525 21.5274C84.1967 21.5274 81.6001 17.9392 81.6001 13.9135V0.640459H81.5941ZM103.505 0.816003C104.877 0.58095 106.453 0.378626 108.001 0.378626C111.97 0.378626 115.824 1.57472 115.824 5.95146C115.824 7.87652 114.627 9.33742 113.954 9.80455C115.502 10.2389 117.545 12.0509 117.545 15.0233C117.545 15.666 117.455 16.3087 117.193 16.8621C116.464 19.9237 113.37 21.4144 108.111 21.4144C106.712 21.4144 105.193 21.2954 103.499 21.093V0.816003H103.505ZM107.474 8.66201H110.246C111.095 8.40018 111.911 7.52543 111.911 6.32636C111.911 4.31502 110.306 3.79136 108.844 3.79136C108.346 3.79136 107.852 3.84789 107.471 3.9074V8.66201H107.474ZM107.474 17.7339C107.998 17.7636 108.555 17.8231 109.079 17.8231C111.443 17.8231 113.489 16.9781 113.489 14.7317C113.489 13.4464 112.524 11.9885 110.979 11.6969H107.474V17.7339ZM3.47509 38.1805V38.9065H0.160828V33.1045H3.37087V33.8395H1.02736V35.2676H2.91229V36.0025H1.02736V38.1745H3.47509V38.1805ZM5.33025 38.9095V33.0837L5.47021 33.0421L7.79287 35.3301L10.1096 33.0421L10.2495 33.0837V38.9095H9.38896V34.8927L7.83456 36.4548H7.74225L6.18785 34.8927V38.9095H5.33025ZM13.1767 37.2224V38.9095H12.3072V33.1492C14.4482 32.6939 15.8894 33.5955 15.8894 35.0742C15.8894 36.4786 14.6745 37.3057 13.1767 37.2224ZM13.1767 36.4459C14.3678 36.5441 14.9961 35.9073 14.9961 35.0742C14.9961 34.3125 14.344 33.6699 13.1767 33.8514V36.4459ZM20.2668 32.9915C22.0356 32.9915 23.319 34.3304 23.319 36.0144C23.319 37.6925 22.0386 39.0225 20.2668 39.0225C18.498 39.0225 17.2235 37.6925 17.2235 36.0144C17.2235 34.3304 18.495 32.9915 20.2668 32.9915ZM20.2668 38.2489C21.4013 38.2489 22.384 37.3563 22.384 36.0174C22.384 34.6785 21.4013 33.7621 20.2668 33.7621C19.1263 33.7621 18.1585 34.6785 18.1585 36.0174C18.1585 37.3563 19.1233 38.2489 20.2668 38.2489ZM31.9754 33.1075L29.7272 38.9749H29.6021L28.0626 34.9433L26.5231 38.9749H26.398L24.1974 33.1075H25.1474L26.5112 36.9011L28.015 33.0421H28.14L29.6527 36.9517L31.0821 33.1105H31.9754V33.1075ZM36.716 38.1805V38.9065H33.3988V33.1045H36.6088V33.8395H34.2683V35.2676H36.1532V36.0025H34.2683V38.1745H36.716V38.1805ZM41.1589 36.669L42.7728 38.9095H41.674L40.3579 36.9755C40.0779 37.032 39.7861 37.0499 39.4407 37.0171V38.9095H38.5712V33.1492C40.8283 32.7029 42.1118 33.5538 42.1118 34.9909C42.1088 35.6187 41.8021 36.2733 41.1589 36.669ZM39.4377 36.2406C40.5455 36.3655 41.2155 35.8121 41.2155 34.9998C41.2155 34.256 40.611 33.6699 39.4377 33.8603V36.2406ZM44.2111 33.1075H45.0806V38.9095H44.2111V33.1075ZM51.3458 33.1075V38.9095H50.5031V36.4131L47.981 34.619V38.9065H47.1383V33.0897L47.2544 33.0391L50.5031 35.3777V33.1045H51.3458V33.1075ZM56.6731 36.1989H58.4598V38.115C57.7064 38.841 56.9292 39.0225 56.143 39.0225C54.2492 39.0225 53.0074 37.6687 53.0074 35.9996C53.0074 34.2382 54.4219 32.9915 56.0507 32.9915C57.1853 32.9915 57.8463 33.4527 58.2751 33.8424C58.1024 34.0477 57.9119 34.2471 57.7362 34.4524C57.3878 34.137 56.8756 33.7591 56.0835 33.7591C54.9013 33.7591 53.9574 34.735 53.9574 35.9817C53.9574 37.3028 54.8656 38.2549 56.1728 38.2549C56.7178 38.2549 57.3044 38.0317 57.6022 37.7848V36.916H56.6671V36.1989H56.6731ZM62.9919 33.1075H63.8615V38.9095H62.9919V33.1075ZM70.1297 33.1075V38.9095H69.287V36.4131L66.7648 34.619V38.9065H65.9221V33.0897L66.0382 33.0391L69.287 35.3777V33.1045H70.1297V33.1075ZM76.3979 33.1075V38.9095H75.5552V36.4131L73.033 34.619V38.9065H72.1903V33.0897L72.3064 33.0391L75.5552 35.3777V33.1045H76.3979V33.1075ZM81.1058 32.9915C82.8746 32.9915 84.158 34.3304 84.158 36.0144C84.158 37.6925 82.8775 39.0225 81.1058 39.0225C79.337 39.0225 78.0625 37.6925 78.0625 36.0144C78.0625 34.3304 79.334 32.9915 81.1058 32.9915ZM81.1058 38.2489C82.2403 38.2489 83.223 37.3563 83.223 36.0174C83.223 34.6785 82.2403 33.7621 81.1058 33.7621C79.9653 33.7621 78.9975 34.6785 78.9975 36.0174C78.9975 37.3563 79.9653 38.2489 81.1058 38.2489ZM90.2684 33.1075L87.7045 38.9749H87.5884L85.0424 33.1075H86.025L87.6628 37.0737L89.3512 33.1075H90.2684ZM90.179 38.9095L92.8829 33.0421H92.999L95.6701 38.9095H94.7112L94.1901 37.7282H91.6679L91.1468 38.9095H90.179ZM91.9717 37.0082H93.8745L92.9305 34.8005L91.9717 37.0082ZM100.021 33.8424H98.5228V38.9065H97.6533V33.8424H96.1733V33.1075H100.018V33.8424H100.021ZM101.626 33.1075H102.495V38.9095H101.626V33.1075ZM107.2 32.9915C108.969 32.9915 110.252 34.3304 110.252 36.0144C110.252 37.6925 108.972 39.0225 107.2 39.0225C105.431 39.0225 104.157 37.6925 104.157 36.0144C104.157 34.3304 105.428 32.9915 107.2 32.9915ZM107.2 38.2489C108.335 38.2489 109.317 37.3563 109.317 36.0174C109.317 34.6785 108.335 33.7621 107.2 33.7621C106.06 33.7621 105.092 34.6785 105.092 36.0174C105.092 37.3563 106.057 38.2489 107.2 38.2489ZM116.13 33.1075V38.9095H115.288V36.4131L112.765 34.619V38.9065H111.923V33.0897L112.039 33.0391L115.288 35.3777V33.1045H116.13V33.1075Z" fill="#B0B2C6"/>
</svg>
