<svg width="175" height="38" viewBox="0 0 175 38" fill="none" xmlns="http://www.w3.org/2000/svg">
<g opacity="0.5" clip-path="url(#clip0_1_3486)">
<path d="M61.7715 21.5029L60.7285 24.4548H60.6416C60.4677 23.7892 60.149 22.7763 59.6275 21.5607L54.0356 7.52457H48.5596V29.8956H52.1813V16.091C52.1813 15.2228 52.1813 14.2388 52.1523 13.0233C52.1234 12.4155 52.0654 11.9525 52.0365 11.6052H52.1234C52.2972 12.4734 52.5 13.1101 52.6449 13.5153L59.3667 29.8377H61.9164L68.5803 13.3706C68.7252 12.9943 68.8701 12.2419 69.0149 11.6052H69.1018C69.0149 13.2548 68.957 14.7308 68.928 15.6279V29.8088H72.7815V7.46669H67.5083L61.7715 21.5029ZM76.4321 13.7757H80.1987V29.8088H76.4321V13.7757ZM78.3444 7.00364C77.707 7.00364 77.1855 7.23517 76.7509 7.64033C76.3163 8.0455 76.0845 8.56643 76.0845 9.20312C76.0845 9.81088 76.3163 10.3318 76.7509 10.737C77.1855 11.1421 77.707 11.3447 78.3444 11.3447C78.9818 11.3447 79.5323 11.1132 79.9379 10.737C80.3725 10.3318 80.6043 9.81088 80.6043 9.20312C80.6043 8.59537 80.3725 8.07444 79.9379 7.64033C79.5613 7.23517 79.0108 7.00364 78.3444 7.00364ZM93.5555 13.631C92.8601 13.4863 92.1358 13.3995 91.4404 13.3995C89.731 13.3995 88.1664 13.7757 86.8626 14.5282C85.5588 15.2806 84.5158 16.3225 83.8494 17.6248C83.154 18.9561 82.8063 20.4899 82.8063 22.2553C82.8063 23.7892 83.154 25.1494 83.8204 26.3938C84.4868 27.6093 85.4139 28.5933 86.6598 29.2589C87.8477 29.9246 89.2384 30.2719 90.803 30.2719C92.5994 30.2719 94.135 29.8956 95.3519 29.2011L95.3808 29.1721V25.6992L95.236 25.815C94.6855 26.2202 94.048 26.5675 93.4106 26.77C92.7442 27.0016 92.1358 27.1173 91.6143 27.1173C90.1076 27.1173 88.9197 26.6832 88.0795 25.7282C87.2103 24.8021 86.7757 23.5287 86.7757 21.937C86.7757 20.2874 87.2103 18.985 88.1085 18.03C89.0067 17.075 90.1946 16.583 91.6432 16.583C92.8601 16.583 94.106 16.9881 95.236 17.7985L95.3808 17.9142V14.2388L95.3519 14.2098C94.8593 14.0073 94.3088 13.7757 93.5555 13.631ZM105.985 13.5153C105.058 13.5153 104.189 13.8047 103.435 14.4124C102.798 14.9334 102.363 15.6858 101.987 16.583H101.958V13.7757H98.1913V29.8088H101.958V21.6186C101.958 20.2295 102.248 19.0719 102.885 18.2326C103.522 17.3644 104.334 16.9303 105.319 16.9303C105.666 16.9303 106.014 17.0171 106.449 17.075C106.854 17.1907 107.144 17.3065 107.347 17.4512L107.492 17.5669V13.8047L107.405 13.7757C107.144 13.6021 106.623 13.5153 105.985 13.5153ZM116.242 13.4284C113.605 13.4284 111.49 14.2098 110.012 15.7437C108.506 17.2775 107.781 19.3902 107.781 22.0527C107.781 24.5416 108.535 26.5675 109.983 28.0434C111.432 29.4905 113.402 30.2429 115.865 30.2429C118.444 30.2429 120.501 29.4615 121.979 27.8987C123.485 26.3359 124.209 24.2522 124.209 21.6765C124.209 19.1297 123.514 17.1039 122.094 15.6279C120.733 14.152 118.733 13.4284 116.242 13.4284ZM119.255 25.7571C118.56 26.6543 117.459 27.0884 116.097 27.0884C114.735 27.0884 113.634 26.6543 112.852 25.6992C112.07 24.8021 111.693 23.4998 111.693 21.8502C111.693 20.1427 112.099 18.8403 112.852 17.9142C113.634 16.9881 114.706 16.5251 116.068 16.5251C117.401 16.5251 118.444 16.9592 119.197 17.8564C119.95 18.7535 120.356 20.0558 120.356 21.7633C120.298 23.4998 119.979 24.86 119.255 25.7571ZM132.612 20.4321C131.424 19.9401 130.671 19.5638 130.323 19.2455C130.033 18.9561 129.888 18.5509 129.888 18.03C129.888 17.5959 130.062 17.1618 130.497 16.8724C130.931 16.583 131.424 16.4383 132.148 16.4383C132.786 16.4383 133.452 16.554 134.089 16.7277C134.727 16.9013 135.306 17.1618 135.77 17.5091L135.915 17.6248V14.0941L135.828 14.0651C135.393 13.8915 134.814 13.7179 134.118 13.5732C133.423 13.4574 132.786 13.3995 132.264 13.3995C130.468 13.3995 128.99 13.8336 127.831 14.7887C126.672 15.6858 126.122 16.9013 126.122 18.3194C126.122 19.0719 126.238 19.7375 126.498 20.2874C126.759 20.8372 127.136 21.3582 127.657 21.7923C128.179 22.1974 128.932 22.6605 129.975 23.0946C130.844 23.4708 131.511 23.7602 131.916 23.9918C132.322 24.2233 132.583 24.4837 132.786 24.6863C132.93 24.9179 133.017 25.2073 133.017 25.5835C133.017 26.6543 132.206 27.1752 130.555 27.1752C129.917 27.1752 129.251 27.0595 128.469 26.799C127.686 26.5385 126.962 26.1623 126.354 25.7282L126.209 25.6124V29.2879L126.296 29.3168C126.846 29.5773 127.512 29.7509 128.324 29.9535C129.135 30.0982 129.859 30.214 130.497 30.214C132.438 30.214 134.031 29.7799 135.161 28.8248C136.32 27.8987 136.929 26.7122 136.929 25.1783C136.929 24.1075 136.639 23.1525 136.002 22.429C135.161 21.7344 134.118 21.0109 132.612 20.4321ZM146.867 13.4284C144.23 13.4284 142.115 14.2098 140.637 15.7437C139.16 17.2775 138.406 19.3902 138.406 22.0527C138.406 24.5416 139.16 26.5675 140.608 28.0434C142.057 29.4905 144.027 30.2429 146.49 30.2429C149.069 30.2429 151.126 29.4615 152.604 27.8987C154.11 26.3359 154.834 24.2522 154.834 21.6765C154.834 19.1297 154.139 17.1039 152.719 15.6279C151.358 14.152 149.358 13.4284 146.867 13.4284ZM149.851 25.7571C149.156 26.6543 148.055 27.0884 146.693 27.0884C145.302 27.0884 144.23 26.6543 143.448 25.6992C142.666 24.8021 142.289 23.4998 142.289 21.8502C142.289 20.1427 142.695 18.8403 143.448 17.9142C144.23 16.9881 145.302 16.5251 146.664 16.5251C147.968 16.5251 149.04 16.9592 149.793 17.8564C150.546 18.7535 150.952 20.0558 150.952 21.7633C150.952 23.4998 150.575 24.86 149.851 25.7571ZM174.971 16.8724V13.7757H171.176V9.02948L171.06 9.05842L167.467 10.1292L167.38 10.1582V13.7757H161.701V11.7499C161.701 10.8238 161.933 10.1003 162.339 9.63723C162.744 9.17418 163.353 8.94266 164.106 8.94266C164.628 8.94266 165.178 9.05842 165.786 9.31889L165.931 9.40571V6.13542L165.844 6.10648C165.323 5.93284 164.628 5.81708 163.729 5.81708C162.599 5.81708 161.614 6.07754 160.716 6.51165C159.818 7.00364 159.152 7.66927 158.659 8.56643C158.166 9.43465 157.906 10.4186 157.906 11.5473V13.7757H155.269V16.8434H157.906V29.8088H161.701V16.8724H167.38V25.1204C167.38 28.5065 168.974 30.214 172.161 30.214C172.682 30.214 173.233 30.1272 173.754 30.0403C174.305 29.9246 174.71 29.7799 174.942 29.6641L174.971 29.6352V26.5385L174.826 26.6543C174.594 26.799 174.392 26.9148 174.044 27.0016C173.754 27.0884 173.493 27.1173 173.291 27.1173C172.537 27.1173 172.016 26.9437 171.639 26.5096C171.291 26.1044 171.118 25.4388 171.118 24.4548V16.8724H174.971Z" fill="#60658C"/>
<path d="M0 0H17.7608V17.7406H0V0Z" fill="#60658C"/>
<path d="M19.6151 0H37.3758V17.7406H19.6151V0Z" fill="#60658C"/>
<path d="M0 19.5928H17.7608V37.3333H0V19.5928Z" fill="#60658C"/>
<path d="M19.6151 19.5928H37.3758V37.3333H19.6151V19.5928Z" fill="#60658C"/>
</g>
<defs>
<clipPath id="clip0_1_3486">
<rect width="175" height="37.3333" fill="white"/>
</clipPath>
</defs>
</svg>
