<svg width="175" height="45" viewBox="0 0 175 45" fill="none" xmlns="http://www.w3.org/2000/svg">
<g clip-path="url(#clip0_1_3479)">
<path d="M56.0492 34.9648L58.2279 29.9046C60.5823 31.6616 63.7098 32.5753 66.8022 32.5753C69.0863 32.5753 70.5271 31.6968 70.5271 30.3614C70.492 26.6365 56.8574 29.5532 56.752 20.2058C56.7169 15.4618 60.9337 11.8072 66.9076 11.8072C70.4568 11.8072 74.006 12.6857 76.5361 14.6887L74.498 19.8544C72.1787 18.3785 69.2972 17.3243 66.5562 17.3243C64.6938 17.3243 63.4639 18.2028 63.4639 19.3273C63.499 22.9819 77.239 20.9789 77.3795 29.9046C77.3795 34.754 73.2681 38.1626 67.3645 38.1626C63.0422 38.1626 59.0713 37.1435 56.0492 34.9648ZM139.649 28.0773C138.559 29.9749 136.521 31.2751 134.167 31.2751C130.688 31.2751 127.877 28.4638 127.877 24.9849C127.877 21.506 130.688 18.6947 134.167 18.6947C136.521 18.6947 138.559 19.9949 139.649 21.8925L145.658 18.5542C143.409 14.5482 139.086 11.8072 134.167 11.8072C126.893 11.8072 120.989 17.7108 120.989 24.9849C120.989 32.259 126.893 38.1626 134.167 38.1626C139.121 38.1626 143.409 35.4568 145.658 31.4156L139.649 28.0773ZM80.4016 0.878479H87.9217V37.6707H80.4016V0.878479ZM148.609 0.878479V37.6707H156.13V26.6365L165.055 37.6707H174.684L163.333 24.5632L173.84 12.3343H164.634L156.13 22.4899V0.878479H148.609ZM110.271 28.1476C109.182 29.9397 106.933 31.2751 104.403 31.2751C100.924 31.2751 98.1124 28.4638 98.1124 24.9849C98.1124 21.506 100.924 18.6947 104.403 18.6947C106.933 18.6947 109.182 20.1004 110.271 21.9277V28.1476ZM110.271 12.3343V15.3213C109.041 13.248 105.984 11.8072 102.786 11.8072C96.1797 11.8072 90.9789 17.6405 90.9789 24.9498C90.9789 32.259 96.1797 38.1626 102.786 38.1626C105.984 38.1626 109.041 36.7219 110.271 34.6486V37.6355H117.791V12.3343H110.271Z" fill="#303E49"/>
<path d="M9.55824 28.1124C9.55824 30.6777 7.48494 32.751 4.91968 32.751C2.35442 32.751 0.281128 30.6777 0.281128 28.1124C0.281128 25.5472 2.35442 23.4739 4.91968 23.4739H9.55824V28.1124ZM11.8775 28.1124C11.8775 25.5472 13.9508 23.4739 16.5161 23.4739C19.0813 23.4739 21.1546 25.5472 21.1546 28.1124V39.7088C21.1546 42.2741 19.0813 44.3474 16.5161 44.3474C13.9508 44.3474 11.8775 42.2741 11.8775 39.7088V28.1124Z" fill="#303E49"/>
<path d="M16.5161 9.48792C13.9508 9.48792 11.8775 7.41463 11.8775 4.84937C11.8775 2.28411 13.9508 0.210815 16.5161 0.210815C19.0813 0.210815 21.1546 2.28411 21.1546 4.84937V9.48792H16.5161ZM16.5161 11.8423C19.0813 11.8423 21.1546 13.9156 21.1546 16.4809C21.1546 19.0462 19.0813 21.1194 16.5161 21.1194H4.88454C2.31928 21.1194 0.245987 19.0462 0.245987 16.4809C0.245987 13.9156 2.31928 11.8423 4.88454 11.8423H16.5161Z" fill="#303E49"/>
<path d="M35.1054 16.4809C35.1054 13.9156 37.1787 11.8423 39.744 11.8423C42.3092 11.8423 44.3825 13.9156 44.3825 16.4809C44.3825 19.0462 42.3092 21.1194 39.744 21.1194H35.1054V16.4809ZM32.7861 16.4809C32.7861 19.0462 30.7129 21.1194 28.1476 21.1194C25.5823 21.1194 23.509 19.0462 23.509 16.4809V4.84937C23.509 2.28411 25.5823 0.210815 28.1476 0.210815C30.7129 0.210815 32.7861 2.28411 32.7861 4.84937V16.4809Z" fill="#303E49"/>
<path d="M28.1476 35.0703C30.7128 35.0703 32.7861 37.1435 32.7861 39.7088C32.7861 42.2741 30.7128 44.3474 28.1476 44.3474C25.5823 44.3474 23.509 42.2741 23.509 39.7088V35.0703H28.1476ZM28.1476 32.751C25.5823 32.751 23.509 30.6777 23.509 28.1124C23.509 25.5472 25.5823 23.4739 28.1476 23.4739H39.7791C42.3444 23.4739 44.4177 25.5472 44.4177 28.1124C44.4177 30.6777 42.3444 32.751 39.7791 32.751H28.1476Z" fill="#303E49"/>
</g>
<defs>
<clipPath id="clip0_1_3479">
<rect width="175" height="44.6285" fill="white"/>
</clipPath>
</defs>
</svg>
