<svg width="188" height="32" viewBox="0 0 188 32" fill="none" xmlns="http://www.w3.org/2000/svg">
<g opacity="0.5">
<path d="M87.1525 12.884C84.3656 12.884 82.3888 15.1292 82.3888 18.5758V31.2184H78.1346V8.96527H82.3379V11.6826C82.8564 10.782 83.5993 10.0405 84.4898 9.53506C85.3802 9.02959 86.3858 8.77853 87.4022 8.80789H88.9306V12.884H87.1525ZM75.1949 20.0918C75.1949 13.4558 70.6096 8.49314 64.404 8.49314C62.9378 8.50339 61.488 8.81204 60.1381 9.40135C58.7882 9.99065 57.5648 10.849 56.5382 11.9269C55.5116 13.0049 54.7022 14.2812 54.1565 15.6825C53.6108 17.0837 53.3395 18.5822 53.3584 20.0918C53.3584 26.7227 58.3259 31.7377 64.8065 31.7377C66.6168 31.7729 68.4088 31.3596 70.0314 30.5324C71.654 29.7052 73.0597 28.4886 74.1301 26.9849L71.0426 24.6558C70.3343 25.6737 69.397 26.4998 68.311 27.0635C67.225 27.6272 66.0226 27.9116 64.8065 27.8925C63.0746 27.8841 61.4028 27.2371 60.0943 26.0688C58.7858 24.9004 57.927 23.2881 57.6737 21.524H75.2051L75.1949 20.0918ZM57.7654 18.0512C58.5246 14.6571 61.1586 12.3594 64.3531 12.3594C67.5475 12.3594 70.1765 14.6571 70.8898 18.0512H57.7654ZM39.8825 8.49314C38.4608 8.49437 37.0534 8.78568 35.7417 9.35024C34.4299 9.9148 33.2399 10.7414 32.2402 11.7823V0.655762H27.986V31.2184H32.1893V28.3961C34.2255 30.5171 36.9963 31.719 39.8927 31.7377C41.3952 31.7706 42.8889 31.4943 44.2864 30.925C45.6838 30.3557 46.9567 29.5048 48.0306 28.4223C49.1045 27.3399 49.9577 26.0475 50.5402 24.6211C51.1227 23.1946 51.4227 21.6628 51.4227 20.1154C51.4227 18.568 51.1227 17.0362 50.5402 15.6098C49.9577 14.1834 49.1045 12.891 48.0306 11.8085C46.9567 10.726 45.6838 9.87521 44.2864 9.3059C42.8889 8.73659 41.3952 8.46027 39.8927 8.49314H39.8825ZM39.5768 27.8243C38.094 27.8316 36.6424 27.3851 35.4064 26.5416C34.1704 25.6981 33.2056 24.4956 32.6344 23.0866C32.0632 21.6775 31.9114 20.1256 32.1982 18.6276C32.485 17.1296 33.1975 15.7531 34.2453 14.6727C35.2932 13.5924 36.6291 12.8568 38.0835 12.5595C39.538 12.2621 41.0455 12.4163 42.4147 13.0025C43.7839 13.5887 44.9531 14.5805 45.774 15.852C46.5949 17.1235 47.0305 18.6175 47.0255 20.1443C47.0268 21.1514 46.835 22.1488 46.461 23.0793C46.087 24.0099 45.5383 24.8552 44.8462 25.5668C44.1541 26.2785 43.3324 26.8423 42.4281 27.2261C41.5238 27.6099 40.5549 27.8061 39.5768 27.8033V27.8243ZM12.3194 27.6145C16.4258 27.6145 19.6152 24.3725 19.6152 19.5148V0.655762H24.0222V31.2184H19.6661V28.3279C18.6484 29.4109 17.4279 30.2701 16.0784 30.8535C14.7289 31.4369 13.2785 31.7323 11.815 31.722C5.48206 31.722 0.606285 26.9692 0.606285 19.7613V0.655762H5.09485V19.541C5.09485 24.4249 8.15176 27.6145 12.3194 27.6145Z" fill="#60658C"/>
<path d="M99.5126 0.655762H120.335V5.90166H105.137V13.3508H119.912V18.4184H105.137V25.9935H120.335V31.2394H99.5126V0.655762ZM177.841 31.7902C184.225 31.7902 187.822 28.6426 187.822 24.32C187.822 21.2407 185.692 18.943 181.234 17.9463L176.521 16.9548C173.785 16.4302 172.924 15.9056 172.924 14.8564C172.924 13.4977 174.244 12.6636 176.674 12.6636C179.308 12.6636 181.259 13.3928 181.769 15.9004H187.292C186.991 11.179 183.695 8.06298 177.01 8.06298C171.233 8.06298 167.177 10.5181 167.177 15.2761C167.177 18.5653 169.409 20.7056 174.224 21.7495L179.492 23.0033C181.57 23.423 182.126 24 182.126 24.8866C182.126 26.2977 180.556 27.1843 178.019 27.1843C174.83 27.1843 173.006 26.4551 172.298 23.9476H166.744C167.554 28.6584 170.948 31.7902 177.841 31.7902ZM165.139 31.2184H159.163C155.413 31.2184 153.335 28.8158 153.335 25.7836V13.7705H149.131V8.65052H153.355V2.22429H158.908V8.65052H165.139V13.7705H158.908V24.32C158.908 25.5213 159.718 26.0984 160.987 26.0984H165.139V31.2184ZM141.194 8.66101V10.6964C139.238 8.99458 136.759 8.06478 134.198 8.07347C132.666 8.04027 131.142 8.32246 129.716 8.90348C128.291 9.48451 126.992 10.3527 125.897 11.4571C124.801 12.5616 123.931 13.88 123.337 15.3353C122.743 16.7905 122.437 18.3532 122.437 19.9318C122.437 21.5104 122.743 23.0731 123.337 24.5284C123.931 25.9836 124.801 27.3021 125.897 28.4065C126.992 29.511 128.291 30.3792 129.716 30.9602C131.142 31.5412 132.666 31.8234 134.198 31.7902C136.759 31.8016 139.24 30.8715 141.194 29.1672V31.2079H146.732V8.65052L141.194 8.66101ZM134.657 26.8381C133.328 26.8537 132.025 26.4622 130.914 25.7136C129.802 24.9649 128.931 23.8927 128.412 22.6334C127.894 21.374 127.75 19.9843 128.001 18.6408C128.251 17.2974 128.883 16.0609 129.818 15.0885C130.752 14.116 131.946 13.4516 133.248 13.1796C134.55 12.9075 135.901 13.0402 137.13 13.5608C138.359 14.0813 139.409 14.9662 140.148 16.1029C140.887 17.2397 141.281 18.577 141.28 19.9449C141.288 20.8467 141.123 21.7411 140.793 22.5765C140.463 23.4119 139.975 24.1716 139.358 24.8117C138.742 25.4517 138.007 25.9595 137.199 26.3055C136.39 26.6516 135.523 26.829 134.647 26.8276L134.657 26.8381Z" fill="#60658C"/>
</g>
</svg>
