<?xml version="1.0" standalone="no"?>
<!DOCTYPE svg PUBLIC "-//W3C//DTD SVG 20010904//EN"
 "http://www.w3.org/TR/2001/REC-SVG-20010904/DTD/svg10.dtd">
<svg version="1.0" xmlns="http://www.w3.org/2000/svg"
 width="195.000000pt" height="180.000000pt" viewBox="0 0 195.000000 180.000000"
 preserveAspectRatio="xMidYMid meet">

<g transform="translate(0.000000,180.000000) scale(0.100000,-0.100000)"
fill="#000000" stroke="none">
<path d="M260 1771 c-230 -15 -245 -17 -249 -36 -4 -22 16 -441 25 -518 5 -38
9 -46 19 -37 9 8 10 21 4 48 -35 150 31 285 161 326 25 8 148 39 274 68 l230
53 -107 3 c-97 2 -124 10 -98 27 5 3 24 23 41 45 l32 40 -44 -1 c-23 -1 -153
-9 -288 -18z"/>
<path d="M532 1601 c-363 -87 -386 -97 -431 -186 -19 -36 -26 -64 -25 -105 1
-78 9 -88 45 -54 l29 28 0 -159 0 -159 85 -365 c47 -201 93 -383 102 -404 l16
-37 181 2 c172 3 181 4 184 23 2 13 -7 26 -27 37 -16 9 -43 39 -59 67 l-29 51
-6 261 c-8 310 -8 310 83 335 60 16 148 43 167 50 6 3 14 -3 16 -13 3 -10 5 0
4 21 -2 34 2 41 23 50 17 8 25 17 22 31 -3 19 -2 19 8 2 7 -10 21 -22 33 -27
20 -7 19 -9 -13 -17 -19 -5 -35 -15 -35 -23 0 -20 21 -23 39 -5 9 9 21 13 26
10 14 -9 60 2 60 14 0 4 -12 6 -26 3 -18 -3 -25 -1 -20 6 3 6 -2 15 -11 21
-17 10 -17 10 0 11 9 0 17 7 17 15 0 8 6 15 14 15 8 0 18 5 22 11 4 7 -1 9
-12 7 -11 -3 -31 1 -45 9 -23 10 -29 10 -39 -2 -28 -34 -70 0 -70 55 0 16 5
19 31 13 20 -4 34 -1 39 7 6 9 12 9 29 1 11 -7 21 -10 21 -7 0 14 -26 62 -37
69 -17 11 -16 32 2 47 12 10 24 10 55 1 41 -12 49 -28 28 -49 -9 -9 -9 -12 3
-12 8 0 20 5 27 12 7 7 12 8 12 2 0 -5 -15 -18 -33 -28 l-32 -19 30 -8 c19 -5
32 -5 36 2 4 8 8 7 12 -2 3 -10 7 -9 13 5 5 13 3 21 -4 24 -17 5 -15 22 3 22
20 0 58 -81 45 -94 -6 -6 -10 -27 -10 -48 0 -27 -8 -46 -30 -71 -33 -38 -37
-49 -15 -41 8 4 15 12 15 20 0 22 11 17 39 -16 20 -24 45 -36 111 -54 47 -13
93 -27 102 -31 24 -10 47 -65 64 -153 8 -42 27 -126 41 -187 15 -62 28 -153
31 -207 2 -54 6 -98 9 -98 24 0 156 37 186 51 l37 19 0 276 0 276 -86 365
c-47 201 -90 376 -96 389 l-11 24 -336 -1 -336 -1 -323 -77z m398 -351 c11 -7
7 -10 -17 -10 -18 0 -33 5 -33 10 0 13 30 13 50 0z"/>
<path d="M1572 1648 c7 -18 42 -161 79 -318 l67 -285 1 243 c1 260 -3 288 -52
340 -25 27 -69 52 -91 52 -13 0 -13 -5 -4 -32z"/>
<path d="M1055 1121 c4 -7 1 -19 -6 -27 -17 -20 -5 -28 20 -12 26 16 26 24 0
39 -16 8 -20 8 -14 0z"/>
<path d="M864 915 c4 -11 10 -49 11 -84 4 -72 9 -81 24 -53 8 14 8 29 1 47 -5
14 -10 39 -10 54 0 16 -8 35 -17 42 -15 12 -16 12 -9 -6z"/>
<path d="M945 890 c-3 -5 1 -10 11 -10 13 0 14 -3 5 -14 -7 -8 -8 -17 -3 -20
11 -7 21 23 15 42 -6 15 -19 16 -28 2z"/>
<path d="M151 570 c-1 -140 4 -261 9 -282 19 -66 89 -128 145 -128 13 0 14 4
5 20 -6 10 -42 153 -80 317 -39 164 -72 303 -74 308 -3 6 -5 -100 -5 -235z"/>
<path d="M830 690 c0 -5 7 -10 15 -10 8 0 15 5 15 10 0 6 -7 10 -15 10 -8 0
-15 -4 -15 -10z"/>
<path d="M890 675 c7 -8 17 -15 22 -15 6 0 5 7 -2 15 -7 8 -17 15 -22 15 -6 0
-5 -7 2 -15z"/>
<path d="M807 653 c-15 -15 -5 -22 22 -17 16 4 32 1 35 -5 4 -6 14 -11 23 -11
14 0 14 3 -2 20 -17 19 -64 27 -78 13z"/>
<path d="M810 602 c-14 -2 -29 -8 -35 -14 -7 -7 0 -9 23 -5 17 4 44 2 58 -4
37 -13 42 -4 7 13 -15 8 -39 12 -53 10z"/>
<path d="M784 559 c-3 -5 4 -9 16 -9 12 0 35 -13 51 -29 19 -20 35 -27 49 -24
11 3 20 9 20 12 0 12 -130 60 -136 50z"/>
<path d="M1267 505 c-12 -85 -9 -105 14 -105 20 0 21 3 14 57 -11 89 -21 105
-28 48z"/>
<path d="M890 459 c0 -5 -4 -7 -10 -4 -6 4 -10 -6 -10 -23 0 -26 4 -30 37 -35
42 -7 56 0 31 14 -10 5 -15 15 -12 22 2 7 -5 18 -16 25 -13 8 -20 8 -20 1z"/>
<path d="M900 378 c19 -5 40 -13 45 -17 19 -15 165 -92 165 -88 0 4 -130 82
-177 106 -12 6 -32 11 -45 10 -17 -1 -14 -3 12 -11z"/>
<path d="M1675 295 c-16 -7 -68 -21 -114 -32 -70 -15 -85 -22 -97 -44 -18 -36
-32 -39 -94 -23 -58 15 -70 12 -70 -17 0 -18 8 -19 145 -19 155 0 179 6 222
52 24 25 58 99 46 97 -5 0 -21 -7 -38 -14z"/>
</g>
</svg>
